<?xml version="1.0" encoding="UTF-8" standalone="no"?>
<!-- Created with Inkscape (http://www.inkscape.org/) -->

<svg
   width="152.38846mm"
   height="51.027851mm"
   viewBox="0 0 152.38846 51.027851"
   version="1.1"
   id="svg1"
   xml:space="preserve"
   inkscape:version="1.3 (0e150ed6c4, 2023-07-21)"
   sodipodi:docname="geikha.svg"
   xmlns:inkscape="http://www.inkscape.org/namespaces/inkscape"
   xmlns:sodipodi="http://sodipodi.sourceforge.net/DTD/sodipodi-0.dtd"
   xmlns="http://www.w3.org/2000/svg"
   xmlns:svg="http://www.w3.org/2000/svg"><sodipodi:namedview
     id="namedview1"
     pagecolor="#ffffff"
     bordercolor="#000000"
     borderopacity="0.25"
     inkscape:showpageshadow="2"
     inkscape:pageopacity="0.0"
     inkscape:pagecheckerboard="0"
     inkscape:deskcolor="#d1d1d1"
     inkscape:document-units="mm"
     inkscape:zoom="0.59537585"
     inkscape:cx="523.19892"
     inkscape:cy="499.68436"
     inkscape:window-width="1920"
     inkscape:window-height="1177"
     inkscape:window-x="-8"
     inkscape:window-y="-8"
     inkscape:window-maximized="1"
     inkscape:current-layer="layer1"
     showgrid="false" /><defs
     id="defs1" /><g
     inkscape:label="Layer 1"
     inkscape:groupmode="layer"
     id="layer1"
     transform="translate(-21.281842,-62.217032)"><path
       style="font-size:71.5788px;line-height:0.9;font-family:Haettenschweiler;-inkscape-font-specification:Haettenschweiler;fill:#ffffff;fill-opacity:1;stroke-width:12.6813;paint-order:stroke markers fill"
       d="m 48.972004,112.79053 h -5.277539 l -1.432974,-2.7611 c -2.42324,2.14363 -4.986283,3.21545 -7.689128,3.21545 -2.632944,0 -4.939683,-0.67571 -6.920216,-2.02713 -1.957233,-1.37472 -2.935849,-3.55331 -2.935849,-6.53576 V 71.968245 c 0,-6.500809 4.147469,-9.751213 12.442408,-9.751213 7.875532,0 11.813298,2.959149 11.813298,8.877448 v 4.401104 h -9.960917 v -5.239918 c 0,-0.815513 -0.547559,-1.22327 -1.642677,-1.22327 -1.095119,0 -1.642678,0.407757 -1.642678,1.22327 V 105.0315 c 0,0.81551 0.547559,1.22327 1.642678,1.22327 1.095118,0 1.655309,-0.27783 1.642677,-1.22327 -0.01263,-0.94544 0.0812,-6.646828 0.0812,-6.646828 h 9.87972 z"
       id="text5"
       aria-label="G"
       sodipodi:nodetypes="cccscssssccssssszccc" /><path
       style="font-size:71.5788px;line-height:0.9;font-family:Haettenschweiler;-inkscape-font-specification:Haettenschweiler;fill:#ffffff;stroke-width:12.6813;paint-order:stroke markers fill"
       d="M 72.837879,112.79104 H 51.308319 V 62.671901 h 21.389758 v 6.465858 H 62.317753 v 13.525876 h 9.366757 v 6.081402 h -9.366757 v 17.615093 h 10.520126 z m 12.617161,0 H 74.445606 V 62.671901 H 85.45504 Z m 29.708,0 h -12.0929 L 98.841116,94.197328 V 112.79104 H 87.831682 V 62.671901 H 98.841116 V 79.37828 L 103.6643,62.671901 h 10.20557 l -6.78042,22.857682 z m 26.49254,0 H 130.64614 V 88.745037 h -3.07565 V 112.79104 H 116.56106 V 62.671901 h 11.00943 v 19.991734 h 3.07565 V 62.671901 h 11.00944 z m 32.01474,0 h -10.90459 l -1.85238,-13.455976 h -4.92803 l -1.85238,13.455976 h -10.90458 l 8.24833,-50.119139 h 13.94529 z m -13.66568,-20.411143 -1.57278,-14.95885 -1.50287,14.95885 z"
       id="text3"
       aria-label="EIKHA" /><path
       id="rect5"
       style="fill:#ffffff;fill-opacity:1;stroke-width:5.40726;paint-order:stroke markers fill"
       d="m 21.281843,84.5998 21.665138,0.754833 v 4.567082 l -21.665138,0.670963 z"
       sodipodi:nodetypes="ccccc" /><path
       id="rect6"
       style="fill:#ffffff;fill-opacity:1;stroke-width:4;paint-order:stroke markers fill"
       d="m 40.784956,80.383808 6.467282,3.518907 v 9.727358 h -6.560649 z"
       sodipodi:nodetypes="ccccc" /></g></svg>
